<svg width="38" height="23" viewBox="0 0 38 23" fill="none" xmlns="http://www.w3.org/2000/svg">
<path d="M2.51637 6.59781C2.16052 6.59781 1.85551 6.4719 1.60133 6.22007C1.36409 5.96825 1.24548 5.64927 1.24548 5.26314C1.24548 4.87701 1.36409 4.56642 1.60133 4.33139C1.85551 4.07956 2.16052 3.95365 2.51637 3.95365C2.87222 3.95365 3.16876 4.07956 3.406 4.33139C3.64323 4.56642 3.76185 4.87701 3.76185 5.26314C3.76185 5.64927 3.64323 5.96825 3.406 6.22007C3.16876 6.4719 2.87222 6.59781 2.51637 6.59781ZM0.381268 21.8332C0.127089 21.8332 0 21.7409 0 21.5562C0 21.4051 0.110144 21.3044 0.330432 21.254L0.635447 21.2036C1.05908 21.1365 1.3302 21.0358 1.44882 20.9015C1.56744 20.7504 1.62674 20.4985 1.62674 20.146V11.6847C1.62674 11.3825 1.57591 11.181 1.47424 11.0803C1.38951 10.9628 1.22853 10.8872 0.991297 10.8536L0.457522 10.7781C0.237234 10.7613 0.127089 10.669 0.127089 10.5011C0.127089 10.3668 0.262651 10.2745 0.533776 10.2241C1.05908 10.1401 1.48271 10.0058 1.80467 9.82117C2.12663 9.6365 2.44012 9.40985 2.74513 9.14124C2.89764 8.99014 3.02473 8.9146 3.1264 8.9146C3.27891 8.9146 3.35516 9.01533 3.35516 9.21679V20.146C3.35516 20.4985 3.406 20.7504 3.50767 20.9015C3.60934 21.0526 3.80421 21.1449 4.09228 21.1785L4.72773 21.254C4.91412 21.2876 5.00732 21.3799 5.00732 21.531C5.00732 21.7325 4.88023 21.8332 4.62605 21.8332H0.381268Z" fill="url(#paint0_linear_5_5)"/>
<path d="M2.51637 6.59781C2.16052 6.59781 1.85551 6.4719 1.60133 6.22007C1.36409 5.96825 1.24548 5.64927 1.24548 5.26314C1.24548 4.87701 1.36409 4.56642 1.60133 4.33139C1.85551 4.07956 2.16052 3.95365 2.51637 3.95365C2.87222 3.95365 3.16876 4.07956 3.406 4.33139C3.64323 4.56642 3.76185 4.87701 3.76185 5.26314C3.76185 5.64927 3.64323 5.96825 3.406 6.22007C3.16876 6.4719 2.87222 6.59781 2.51637 6.59781ZM0.381268 21.8332C0.127089 21.8332 0 21.7409 0 21.5562C0 21.4051 0.110144 21.3044 0.330432 21.254L0.635447 21.2036C1.05908 21.1365 1.3302 21.0358 1.44882 20.9015C1.56744 20.7504 1.62674 20.4985 1.62674 20.146V11.6847C1.62674 11.3825 1.57591 11.181 1.47424 11.0803C1.38951 10.9628 1.22853 10.8872 0.991297 10.8536L0.457522 10.7781C0.237234 10.7613 0.127089 10.669 0.127089 10.5011C0.127089 10.3668 0.262651 10.2745 0.533776 10.2241C1.05908 10.1401 1.48271 10.0058 1.80467 9.82117C2.12663 9.6365 2.44012 9.40985 2.74513 9.14124C2.89764 8.99014 3.02473 8.9146 3.1264 8.9146C3.27891 8.9146 3.35516 9.01533 3.35516 9.21679V20.146C3.35516 20.4985 3.406 20.7504 3.50767 20.9015C3.60934 21.0526 3.80421 21.1449 4.09228 21.1785L4.72773 21.254C4.91412 21.2876 5.00732 21.3799 5.00732 21.531C5.00732 21.7325 4.88023 21.8332 4.62605 21.8332H0.381268Z" fill="black"/>
<path d="M8.18456 18.8617C7.43897 18.8617 6.76963 18.6099 6.17655 18.1062C5.60041 17.5858 5.15136 16.8723 4.8294 15.9657C4.50744 15.0423 4.34646 13.9763 4.34646 12.7675C4.34646 11.3573 4.56675 10.1234 5.00732 9.06569C5.4479 7.99124 6.05793 7.15182 6.83741 6.54744C7.61689 5.94306 8.49804 5.64087 9.48087 5.64087C9.7181 5.64087 9.95534 5.66606 10.1926 5.71642C10.4298 5.75 10.6586 5.81715 10.8789 5.91788C11.15 6.05219 11.2855 5.99343 11.2855 5.7416V2.51825C11.2855 2.21606 11.2347 2.0062 11.133 1.88869C11.0483 1.77117 10.8873 1.70401 10.6501 1.68723L9.98923 1.61168C9.80283 1.5781 9.70963 1.47737 9.70963 1.30949C9.70963 1.14161 9.80283 1.04088 9.98923 1.0073C10.5315 0.906569 10.9636 0.78905 11.2855 0.654744C11.6244 0.520437 11.904 0.38613 12.1243 0.251825C12.3955 0.0839415 12.5988 0 12.7344 0C12.9208 0 13.014 0.134306 13.014 0.402919V16.2427C13.014 16.9478 13.1919 17.3004 13.5477 17.3004C13.768 17.3004 13.9714 17.1577 14.1578 16.8723C14.3442 16.5701 14.4374 16.0664 14.4374 15.3613C14.4374 15.0927 14.5475 14.9584 14.7678 14.9584C14.9711 14.9584 15.0728 15.1011 15.0728 15.3865C15.0728 16.612 14.861 17.5018 14.4374 18.0558C14.0137 18.5931 13.5308 18.8617 12.9885 18.8617C12.4971 18.8617 12.1243 18.7022 11.8702 18.3832C11.616 18.0474 11.4465 17.6529 11.3618 17.1996C11.3448 17.0653 11.2855 16.9982 11.1839 16.9982C11.0822 16.9814 10.989 17.0401 10.9043 17.1744C10.4298 17.8292 9.9977 18.2741 9.60796 18.5091C9.21822 18.7442 8.74375 18.8617 8.18456 18.8617ZM8.74375 17.7033C9.18433 17.7033 9.59101 17.5606 9.96381 17.2752C10.3536 16.973 10.667 16.5701 10.9043 16.0664C11.1585 15.5628 11.2855 15.0004 11.2855 14.3792V8.71314C11.2855 7.95766 11.1076 7.36168 10.7518 6.92518C10.4129 6.48868 9.96381 6.27044 9.40462 6.27044C8.45568 6.27044 7.68467 6.82445 7.09159 7.93248C6.51545 9.02372 6.22738 10.5179 6.22738 12.415C6.22738 14.1442 6.44767 15.462 6.88825 16.3686C7.34577 17.2584 7.96427 17.7033 8.74375 17.7033Z" fill="url(#paint1_linear_5_5)"/>
<path d="M8.18456 18.8617C7.43897 18.8617 6.76963 18.6099 6.17655 18.1062C5.60041 17.5858 5.15136 16.8723 4.8294 15.9657C4.50744 15.0423 4.34646 13.9763 4.34646 12.7675C4.34646 11.3573 4.56675 10.1234 5.00732 9.06569C5.4479 7.99124 6.05793 7.15182 6.83741 6.54744C7.61689 5.94306 8.49804 5.64087 9.48087 5.64087C9.7181 5.64087 9.95534 5.66606 10.1926 5.71642C10.4298 5.75 10.6586 5.81715 10.8789 5.91788C11.15 6.05219 11.2855 5.99343 11.2855 5.7416V2.51825C11.2855 2.21606 11.2347 2.0062 11.133 1.88869C11.0483 1.77117 10.8873 1.70401 10.6501 1.68723L9.98923 1.61168C9.80283 1.5781 9.70963 1.47737 9.70963 1.30949C9.70963 1.14161 9.80283 1.04088 9.98923 1.0073C10.5315 0.906569 10.9636 0.78905 11.2855 0.654744C11.6244 0.520437 11.904 0.38613 12.1243 0.251825C12.3955 0.0839415 12.5988 0 12.7344 0C12.9208 0 13.014 0.134306 13.014 0.402919V16.2427C13.014 16.9478 13.1919 17.3004 13.5477 17.3004C13.768 17.3004 13.9714 17.1577 14.1578 16.8723C14.3442 16.5701 14.4374 16.0664 14.4374 15.3613C14.4374 15.0927 14.5475 14.9584 14.7678 14.9584C14.9711 14.9584 15.0728 15.1011 15.0728 15.3865C15.0728 16.612 14.861 17.5018 14.4374 18.0558C14.0137 18.5931 13.5308 18.8617 12.9885 18.8617C12.4971 18.8617 12.1243 18.7022 11.8702 18.3832C11.616 18.0474 11.4465 17.6529 11.3618 17.1996C11.3448 17.0653 11.2855 16.9982 11.1839 16.9982C11.0822 16.9814 10.989 17.0401 10.9043 17.1744C10.4298 17.8292 9.9977 18.2741 9.60796 18.5091C9.21822 18.7442 8.74375 18.8617 8.18456 18.8617ZM8.74375 17.7033C9.18433 17.7033 9.59101 17.5606 9.96381 17.2752C10.3536 16.973 10.667 16.5701 10.9043 16.0664C11.1585 15.5628 11.2855 15.0004 11.2855 14.3792V8.71314C11.2855 7.95766 11.1076 7.36168 10.7518 6.92518C10.4129 6.48868 9.96381 6.27044 9.40462 6.27044C8.45568 6.27044 7.68467 6.82445 7.09159 7.93248C6.51545 9.02372 6.22738 10.5179 6.22738 12.415C6.22738 14.1442 6.44767 15.462 6.88825 16.3686C7.34577 17.2584 7.96427 17.7033 8.74375 17.7033Z" fill="black"/>
<path d="M16.1152 23C15.6577 23 15.2934 22.8405 15.0222 22.5215C14.7511 22.2193 14.6156 21.8668 14.6156 21.4639C14.6156 21.1449 14.7087 20.8763 14.8951 20.658C15.0815 20.4398 15.3357 20.3307 15.6577 20.3307C15.9288 20.3307 16.1237 20.3894 16.2423 20.5069C16.3609 20.6245 16.4456 20.7588 16.4965 20.9099C16.5473 21.0609 16.5981 21.1953 16.649 21.3128C16.6998 21.4303 16.8015 21.4891 16.954 21.4891C17.1404 21.4891 17.3098 21.3547 17.4623 21.0861C17.6149 20.8343 17.8267 20.2887 18.0978 19.4493C18.2673 18.9456 18.3689 18.5091 18.4028 18.1398C18.4537 17.7704 18.4452 17.3759 18.3774 16.9562C18.3266 16.5365 18.1995 16.0245 17.9961 15.4201L15.2256 6.68175C15.107 6.27883 14.9883 6.01862 14.8697 5.9011C14.7681 5.78358 14.5986 5.69964 14.3614 5.64927L13.9801 5.57372C13.7598 5.52336 13.6497 5.41424 13.6497 5.24635C13.6497 5.07847 13.7683 4.99453 14.0055 4.99453H18.1995C18.4367 4.99453 18.5553 5.07847 18.5553 5.24635C18.5553 5.43102 18.4452 5.54015 18.2249 5.57372L17.8182 5.62409C17.4115 5.67445 17.1489 5.77518 17.0302 5.92628C16.9286 6.06059 16.937 6.31241 17.0557 6.68175L19.2924 14.0602C19.3433 14.2281 19.4195 14.312 19.5212 14.312C19.6398 14.312 19.7245 14.2281 19.7754 14.0602L21.9359 7.13504C22.0715 6.68175 22.1054 6.34599 22.0376 6.12774C21.9867 5.8927 21.7495 5.74161 21.3259 5.67446L20.7921 5.57372C20.5718 5.52336 20.4617 5.41424 20.4617 5.24635C20.4617 5.07847 20.5803 4.99453 20.8175 4.99453H24.0456C24.2828 4.99453 24.4014 5.08686 24.4014 5.27154C24.4014 5.43942 24.2998 5.55694 24.0964 5.62409L23.8677 5.69964C23.6135 5.78358 23.4017 5.93467 23.2322 6.15292C23.0628 6.37117 22.8848 6.74891 22.6984 7.28613L18.9112 18.996C18.5384 20.1712 18.1995 21.0442 17.8945 21.615C17.6064 22.1858 17.3268 22.5551 17.0557 22.723C16.7845 22.9077 16.4711 23 16.1152 23Z" fill="url(#paint2_linear_5_5)"/>
<path d="M16.1152 23C15.6577 23 15.2934 22.8405 15.0222 22.5215C14.7511 22.2193 14.6156 21.8668 14.6156 21.4639C14.6156 21.1449 14.7087 20.8763 14.8951 20.658C15.0815 20.4398 15.3357 20.3307 15.6577 20.3307C15.9288 20.3307 16.1237 20.3894 16.2423 20.5069C16.3609 20.6245 16.4456 20.7588 16.4965 20.9099C16.5473 21.0609 16.5981 21.1953 16.649 21.3128C16.6998 21.4303 16.8015 21.4891 16.954 21.4891C17.1404 21.4891 17.3098 21.3547 17.4623 21.0861C17.6149 20.8343 17.8267 20.2887 18.0978 19.4493C18.2673 18.9456 18.3689 18.5091 18.4028 18.1398C18.4537 17.7704 18.4452 17.3759 18.3774 16.9562C18.3266 16.5365 18.1995 16.0245 17.9961 15.4201L15.2256 6.68175C15.107 6.27883 14.9883 6.01862 14.8697 5.9011C14.7681 5.78358 14.5986 5.69964 14.3614 5.64927L13.9801 5.57372C13.7598 5.52336 13.6497 5.41424 13.6497 5.24635C13.6497 5.07847 13.7683 4.99453 14.0055 4.99453H18.1995C18.4367 4.99453 18.5553 5.07847 18.5553 5.24635C18.5553 5.43102 18.4452 5.54015 18.2249 5.57372L17.8182 5.62409C17.4115 5.67445 17.1489 5.77518 17.0302 5.92628C16.9286 6.06059 16.937 6.31241 17.0557 6.68175L19.2924 14.0602C19.3433 14.2281 19.4195 14.312 19.5212 14.312C19.6398 14.312 19.7245 14.2281 19.7754 14.0602L21.9359 7.13504C22.0715 6.68175 22.1054 6.34599 22.0376 6.12774C21.9867 5.8927 21.7495 5.74161 21.3259 5.67446L20.7921 5.57372C20.5718 5.52336 20.4617 5.41424 20.4617 5.24635C20.4617 5.07847 20.5803 4.99453 20.8175 4.99453H24.0456C24.2828 4.99453 24.4014 5.08686 24.4014 5.27154C24.4014 5.43942 24.2998 5.55694 24.0964 5.62409L23.8677 5.69964C23.6135 5.78358 23.4017 5.93467 23.2322 6.15292C23.0628 6.37117 22.8848 6.74891 22.6984 7.28613L18.9112 18.996C18.5384 20.1712 18.1995 21.0442 17.8945 21.615C17.6064 22.1858 17.3268 22.5551 17.0557 22.723C16.7845 22.9077 16.4711 23 16.1152 23Z" fill="black"/>
<path d="M26.384 2.64416C26.0282 2.64416 25.7232 2.51825 25.469 2.26642C25.2317 2.0146 25.1131 1.69562 25.1131 1.30949C25.1131 0.923357 25.2317 0.612773 25.469 0.377737C25.7232 0.125912 26.0282 0 26.384 0C26.7399 0 27.0364 0.125912 27.2737 0.377737C27.5109 0.612773 27.6295 0.923357 27.6295 1.30949C27.6295 1.69562 27.5109 2.0146 27.2737 2.26642C27.0364 2.51825 26.7399 2.64416 26.384 2.64416ZM24.2489 17.8796C23.9947 17.8796 23.8677 17.7872 23.8677 17.6026C23.8677 17.4515 23.9778 17.3507 24.1981 17.3004L24.5031 17.25C24.9267 17.1828 25.1979 17.0821 25.3165 16.9478C25.4351 16.7967 25.4944 16.5449 25.4944 16.1923V7.73102C25.4944 7.42883 25.4436 7.22737 25.3419 7.12664C25.2572 7.00912 25.0962 6.93358 24.859 6.9L24.3252 6.82445C24.1049 6.80766 23.9947 6.71533 23.9947 6.54745C23.9947 6.41314 24.1303 6.3208 24.4014 6.27044C24.9267 6.1865 25.3504 6.05219 25.6723 5.86752C25.9943 5.68285 26.3078 5.4562 26.6128 5.18759C26.7653 5.0365 26.8924 4.96095 26.9941 4.96095C27.1466 4.96095 27.2228 5.06168 27.2228 5.26314V16.1923C27.2228 16.5449 27.2737 16.7967 27.3753 16.9478C27.477 17.0989 27.6719 17.1912 27.9599 17.2248L28.5954 17.3004C28.7818 17.3339 28.875 17.4263 28.875 17.5774C28.875 17.7788 28.7479 17.8796 28.4937 17.8796H24.2489Z" fill="url(#paint3_linear_5_5)"/>
<path d="M26.384 2.64416C26.0282 2.64416 25.7232 2.51825 25.469 2.26642C25.2317 2.0146 25.1131 1.69562 25.1131 1.30949C25.1131 0.923357 25.2317 0.612773 25.469 0.377737C25.7232 0.125912 26.0282 0 26.384 0C26.7399 0 27.0364 0.125912 27.2737 0.377737C27.5109 0.612773 27.6295 0.923357 27.6295 1.30949C27.6295 1.69562 27.5109 2.0146 27.2737 2.26642C27.0364 2.51825 26.7399 2.64416 26.384 2.64416ZM24.2489 17.8796C23.9947 17.8796 23.8677 17.7872 23.8677 17.6026C23.8677 17.4515 23.9778 17.3507 24.1981 17.3004L24.5031 17.25C24.9267 17.1828 25.1979 17.0821 25.3165 16.9478C25.4351 16.7967 25.4944 16.5449 25.4944 16.1923V7.73102C25.4944 7.42883 25.4436 7.22737 25.3419 7.12664C25.2572 7.00912 25.0962 6.93358 24.859 6.9L24.3252 6.82445C24.1049 6.80766 23.9947 6.71533 23.9947 6.54745C23.9947 6.41314 24.1303 6.3208 24.4014 6.27044C24.9267 6.1865 25.3504 6.05219 25.6723 5.86752C25.9943 5.68285 26.3078 5.4562 26.6128 5.18759C26.7653 5.0365 26.8924 4.96095 26.9941 4.96095C27.1466 4.96095 27.2228 5.06168 27.2228 5.26314V16.1923C27.2228 16.5449 27.2737 16.7967 27.3753 16.9478C27.477 17.0989 27.6719 17.1912 27.9599 17.2248L28.5954 17.3004C28.7818 17.3339 28.875 17.4263 28.875 17.5774C28.875 17.7788 28.7479 17.8796 28.4937 17.8796H24.2489Z" fill="black"/>
<path d="M31.0355 17.3004C30.3238 17.3004 29.7392 17.0821 29.2817 16.6456C28.8241 16.1923 28.5954 15.5963 28.5954 14.8577C28.5954 14.1358 28.8241 13.4558 29.2817 12.8179C29.7392 12.1631 30.3662 11.5755 31.1626 11.0551C31.959 10.5347 32.8656 10.115 33.8823 9.79598C34.1026 9.72883 34.2127 9.58613 34.2127 9.36788V7.07628C34.2127 6.27044 34.0856 5.69963 33.8315 5.36387C33.5773 5.01131 33.2299 4.83504 32.7893 4.83504C32.3657 4.83504 31.976 5.0281 31.6201 5.41423C31.2812 5.78358 31.0355 6.41314 30.883 7.30292C30.7983 7.84015 30.6119 8.23467 30.3238 8.4865C30.0527 8.72153 29.7731 8.83905 29.485 8.83905C29.0105 8.83905 28.7733 8.60401 28.7733 8.13394C28.7733 7.64708 28.9089 7.16861 29.18 6.69854C29.4681 6.21168 29.8409 5.77518 30.2984 5.38905C30.7559 4.98613 31.2558 4.66715 31.798 4.43212C32.3403 4.19708 32.8825 4.07956 33.4248 4.07956C35.1024 4.07956 35.9411 5.04489 35.9411 6.97555V14.6814C35.9411 15.3865 36.1191 15.7391 36.4749 15.7391C36.6952 15.7391 36.8986 15.5963 37.0849 15.3109C37.2713 15.0088 37.3646 14.5051 37.3646 13.8C37.3646 13.5314 37.4747 13.3971 37.695 13.3971C37.8983 13.3971 38 13.5398 38 13.8252C38 15.0507 37.7797 15.9405 37.3391 16.4945C36.9155 17.0318 36.4326 17.3004 35.8903 17.3004C35.4836 17.3004 35.1617 17.1409 34.9244 16.8219C34.6872 16.4861 34.5262 16.0916 34.4415 15.6383C34.4246 15.4704 34.3483 15.3865 34.2127 15.3865C34.0941 15.3697 33.9755 15.4453 33.8569 15.6131C33.4502 16.1672 33.035 16.5869 32.6114 16.8723C32.1878 17.1577 31.6625 17.3004 31.0355 17.3004ZM31.7218 16.142C32.1624 16.142 32.569 15.9909 32.9418 15.6887C33.3146 15.3697 33.6197 14.95 33.8569 14.4296C34.0941 13.9091 34.2127 13.3215 34.2127 12.6668V10.8285C34.2127 10.5095 34.0348 10.4172 33.679 10.5515C32.6453 10.9208 31.8404 11.4328 31.2643 12.0876C30.7051 12.7255 30.4255 13.4978 30.4255 14.4044C30.4255 15.5628 30.8576 16.142 31.7218 16.142Z" fill="url(#paint4_linear_5_5)"/>
<path d="M31.0355 17.3004C30.3238 17.3004 29.7392 17.0821 29.2817 16.6456C28.8241 16.1923 28.5954 15.5963 28.5954 14.8577C28.5954 14.1358 28.8241 13.4558 29.2817 12.8179C29.7392 12.1631 30.3662 11.5755 31.1626 11.0551C31.959 10.5347 32.8656 10.115 33.8823 9.79598C34.1026 9.72883 34.2127 9.58613 34.2127 9.36788V7.07628C34.2127 6.27044 34.0856 5.69963 33.8315 5.36387C33.5773 5.01131 33.2299 4.83504 32.7893 4.83504C32.3657 4.83504 31.976 5.0281 31.6201 5.41423C31.2812 5.78358 31.0355 6.41314 30.883 7.30292C30.7983 7.84015 30.6119 8.23467 30.3238 8.4865C30.0527 8.72153 29.7731 8.83905 29.485 8.83905C29.0105 8.83905 28.7733 8.60401 28.7733 8.13394C28.7733 7.64708 28.9089 7.16861 29.18 6.69854C29.4681 6.21168 29.8409 5.77518 30.2984 5.38905C30.7559 4.98613 31.2558 4.66715 31.798 4.43212C32.3403 4.19708 32.8825 4.07956 33.4248 4.07956C35.1024 4.07956 35.9411 5.04489 35.9411 6.97555V14.6814C35.9411 15.3865 36.1191 15.7391 36.4749 15.7391C36.6952 15.7391 36.8986 15.5963 37.0849 15.3109C37.2713 15.0088 37.3646 14.5051 37.3646 13.8C37.3646 13.5314 37.4747 13.3971 37.695 13.3971C37.8983 13.3971 38 13.5398 38 13.8252C38 15.0507 37.7797 15.9405 37.3391 16.4945C36.9155 17.0318 36.4326 17.3004 35.8903 17.3004C35.4836 17.3004 35.1617 17.1409 34.9244 16.8219C34.6872 16.4861 34.5262 16.0916 34.4415 15.6383C34.4246 15.4704 34.3483 15.3865 34.2127 15.3865C34.0941 15.3697 33.9755 15.4453 33.8569 15.6131C33.4502 16.1672 33.035 16.5869 32.6114 16.8723C32.1878 17.1577 31.6625 17.3004 31.0355 17.3004ZM31.7218 16.142C32.1624 16.142 32.569 15.9909 32.9418 15.6887C33.3146 15.3697 33.6197 14.95 33.8569 14.4296C34.0941 13.9091 34.2127 13.3215 34.2127 12.6668V10.8285C34.2127 10.5095 34.0348 10.4172 33.679 10.5515C32.6453 10.9208 31.8404 11.4328 31.2643 12.0876C30.7051 12.7255 30.4255 13.4978 30.4255 14.4044C30.4255 15.5628 30.8576 16.142 31.7218 16.142Z" fill="black"/>
<defs>
<linearGradient id="paint0_linear_5_5" x1="38" y1="11.5" x2="0" y2="11.5" gradientUnits="userSpaceOnUse">
<stop offset="0.0625" stop-color="#FFA47D"/>
<stop offset="0.317308" stop-color="#FF8EBD"/>
<stop offset="0.653846" stop-color="#F0C4FF"/>
<stop offset="1" stop-color="#FFACC5"/>
</linearGradient>
<linearGradient id="paint1_linear_5_5" x1="38" y1="11.5" x2="0" y2="11.5" gradientUnits="userSpaceOnUse">
<stop offset="0.0625" stop-color="#FFA47D"/>
<stop offset="0.317308" stop-color="#FF8EBD"/>
<stop offset="0.653846" stop-color="#F0C4FF"/>
<stop offset="1" stop-color="#FFACC5"/>
</linearGradient>
<linearGradient id="paint2_linear_5_5" x1="38" y1="11.5" x2="0" y2="11.5" gradientUnits="userSpaceOnUse">
<stop offset="0.0625" stop-color="#FFA47D"/>
<stop offset="0.317308" stop-color="#FF8EBD"/>
<stop offset="0.653846" stop-color="#F0C4FF"/>
<stop offset="1" stop-color="#FFACC5"/>
</linearGradient>
<linearGradient id="paint3_linear_5_5" x1="38" y1="11.5" x2="0" y2="11.5" gradientUnits="userSpaceOnUse">
<stop offset="0.0625" stop-color="#FFA47D"/>
<stop offset="0.317308" stop-color="#FF8EBD"/>
<stop offset="0.653846" stop-color="#F0C4FF"/>
<stop offset="1" stop-color="#FFACC5"/>
</linearGradient>
<linearGradient id="paint4_linear_5_5" x1="38" y1="11.5" x2="0" y2="11.5" gradientUnits="userSpaceOnUse">
<stop offset="0.0625" stop-color="#FFA47D"/>
<stop offset="0.317308" stop-color="#FF8EBD"/>
<stop offset="0.653846" stop-color="#F0C4FF"/>
<stop offset="1" stop-color="#FFACC5"/>
</linearGradient>
</defs>
</svg>
